<svg xmlns="http://www.w3.org/2000/svg" viewBox="0 0 67733.1 45835.4" fill-rule="evenodd" clip-rule="evenodd"><defs><style>
      .fil0,.fil1,.fil2{fill:#fefefe;fill-rule:nonzero}.fil0,.fil2{fill:#baaca5}.fil2{fill:#948a85}
    </style></defs><g id="&#x421;&#x43B;&#x43E;&#x439;_x0020_1"><path class="fil0" d="M16432 16716.2l-35.3-.7c-81.6 4073.2-2089.5 7797.7-3361.5 11640.8l33.6 11.4-33.3-12c-54.5 153.4-72.3 296.6-85.7 437-13.2 140.8-22 278.4-56.5 424l-.2 1.1-.1.7c-34.6 187-47.6 391.3-47.6 606.5.1 705.9 140.3 1531.7 140.2 2236.6.1 432.1-53.2 817.7-218.3 1099.6-82.6 140.7-192.5 256.8-339.2 342.5-146.6 85.4-330.6 141.1-561.5 159.1h-.5c-200.3 18-402 25.8-604.4 25.8-906.7 0-1830.9-150.7-2742.6-150.7-475.5 0-947.8 41-1412 166.9-464.2 125.6-920.2 335.8-1362.2 673-1693.6 1286.3-3333.1 2580.6-5067.7 3604A19959.7 19959.7 0 010 38364.3v80.3a19949.4 19949.4 0 00713-401.6c1740.3-1027 3381.6-2323 5074.6-3609h.1c869.2-662.8 1788.1-825 2731.4-825.4 904 0 1828.3 150.3 2742.6 150.6 204.2 0 407.9-7.8 610.8-26l-3.2-35.4 2.7 35.3c239.3-18.3 434.3-76.5 591.7-168.6 236.5-138 385.7-351.7 474.1-610.3 88.6-259.3 118.2-564.1 118.3-892.5-.2-713.3-140.4-1539.6-140.2-2236.6 0-212.4 13-412.8 46.4-593.8l-34.6-6.3 34.3 8.1c36-152.7 44.9-294.6 58.1-433.6 13.1-139 30.5-275.1 82-420.1l.2-.7c1268-3835.4 3281.7-7565.7 3365-11661.7v-2.5l-.2-2.3-35 4.1zM0 4846c259.7 174.6 515.3 364.3 771.3 551.6l20.8-28.5-21.4 28c706.7 537.9 1256 1409.4 1845.4 2149.6 294.8 370.2 600 707.6 942.7 953.5 342.5 246 723.6 400 1165.2 399.9 110.4 0 224.4-9.6 342.6-29.7l1-.1.7-.1c185.2-41 354-148.5 514-284.3 239.7-203.8 461-472.8 683-689 111-108.3 222-203 334-270 112.2-67.1 224.7-106.3 340.8-106.3 122.4.1 251 43 392.3 150.4l.8.5.4.4c301.5 209.7 486.9 467.2 598.5 760.1 111.5 292.9 148.3 621.5 148.3 969.8.2 644.4-126.3 1353.8-126.4 2023 0 186.1 9.9 369.1 35.1 546.9l35-5-35 4.4c36.1 286.4 153.5 544.8 331 737 177.2 192.4 415.3 318.3 689.2 337.5h.4a3049 3049 0 00183.6 5.4c368.8 0 737.9-61.6 1103-122.7 365-61.2 726-121.8 1078-121.8 431.9.2 849 90.2 1250.4 381.5l-.2-.1c1160.8 854.4 2043.7 1825.2 3285 2500l16.7-31-20.3 28.9c98.3 68.8 167.7 177.1 255.8 291l27.9-21.6-30.4 17.9c119.3 202 201.7 444 237.8 747.3l35-4.2-35.3-.7 35.3.7 35-4.1c-37-311.5-122.3-563.8-247-774.9l-1.2-1.9-1.3-1.8c-85.8-109.8-157.5-225-271-305.4l-1.6-1.3-1.8-.8c-1228.3-667.2-2109.2-1634.7-3276.8-2494.9l-.2-.1c-414.7-301.6-850.4-395.3-1291.8-395-360.1 0-724.7 61.6-1089.7 122.7s-730.3 121.8-1091.3 121.8c-60 0-119.7-1.7-179.3-5.3h.3c-255.2-18-475.7-134.4-642.4-314.9-166.6-180.4-278.5-425.2-312.9-698v-.5c-24.7-173.6-34.4-353.3-34.4-537-.2-660.5 126.1-1369.8 126.3-2023 0-353.1-37-690.4-152.9-994.9-115.7-304.5-311.2-575.7-624.1-793l-20.1 29 21.3-28.1c-150-114.4-295.4-165-435-164.8-176.7.2-339.8 79.5-495 196.2-232.8 175.5-452 437.7-679 669.1-113.4 115.8-228.5 223.8-347 309.4-118.3 85.7-239.8 148.8-366 176.5l7.6 34.5-5.9-34.8a1977.1 1977.1 0 01-330.8 28.6c-424.8 0-789.9-147-1124-386.6-501-359.3-929.1-928.3-1365-1511-436.3-582.5-880.6-1178.6-1421.5-1590.8l-.5-.4c-268.6-196.4-537.7-396.5-813-579.5v84.8z"></path><path class="fil1" d="M15422 18444.6l-36.2.5c.7 53 1 106.1 1 159.1.5 3218.4-1344.4 6259-2317.3 9305.2l-.1.3c-186.1 605-233.6 1220.6-233.6 1839.4 0 654.8 53.1 1313.4 53 1966.4 0 263.1-8.5 525.2-32.6 786.3l36.2 3.2-36-3.9c-25 237.1-81.6 429-163 583.5-122.3 231.4-300 380-518.7 473-218.7 93.2-479 128.9-760.8 128.9-410.1 0-865.2-75.6-1303-153.9-438.1-78.3-858.6-159.4-1203.9-169.3h.2c-69.9-2.1-139.4-3.5-208.5-3.5-1053.6 0-2020.9 273-2953.6 942.2-1694 1212.2-3333.7 2487.8-5054.8 3478.4A18672.5 18672.5 0 010 38159.2v82c244-126.5 486.1-259.3 726.4-397.6 1727.2-994.5 3368.4-2272 5061-3482.6 921.2-660.5 1870.1-928.2 2911.3-928.6 68.3 0 137 1 206.1 3.6h.2c335.8 9.5 754.7 89.6 1193.1 168.3 438.6 78.3 897 154.5 1315.8 154.5 383.6 0 735.6-63.9 1007-254.4 135.6-95.2 250.2-221.9 336.6-386.3 86.6-164 145.2-365 171-609.2v-.4c24.3-263.8 33-528.4 33-793-.1-657.2-53.3-1315.5-53.2-1966.4 0-614.9 47.3-1223 230.4-1818.2l-34.7-10.6 34.6 11c970.5-3041.3 2320.4-6088.1 2320.8-9327 0-53.4-.3-106.8-1-160.2l-.1-3-.5-2.9-35.7 6.4zM0 8149.6c911.8 330 1716 945.7 2338.6 1736.2 836.8 1062.4 1344.6 2439.8 1344.6 3858.5 0 299.2-22.6 600.3-69.4 900.7l35.8 5.5-35.2-8.3a668.3 668.3 0 00-19.5 151.7c0 57.4 9.9 114.8 39.3 163.8 29.2 49 79.8 86.8 149 101l7.5-35.5-10.4 34.8a573.5 573.5 0 00166.8 25.4c107.9 0 206.4-32.4 298.6-80 138.4-71.8 264.7-177.8 396.5-270.6 132-93 268.2-172.2 424-195.5l-5.5-35.9v36.3c76-.3 147.5-17 201.2-16.6 27 0 48.1 3.9 64.1 12.4l17-32-25.4 25.9c261.8 255.3 536 425 818.7 530.2C6419 15163 6709.6 15204 7004 15204c489.3 0 989.6-112.8 1488-233.4 498.5-120.8 995-249.4 1475-283.9h-.4c180.8-11.2 364-22.4 544-22.4 208.4 0 412.3 15 602.3 61.6 190.2 46.7 366.5 124.7 522 251l22.8-28.2-24.3 27c1165.6 1044.9 2295.5 1903 3496.5 2793.2l21.6-29-30.2 20.1c124.9 186.7 215.6 411.7 265 690.9l35.8-6.3-36.3.5 36.3-.5 35.7-6.4c-51-287.6-145.3-522.9-276.2-718.5l-3.5-5.3-5-3.7c-1200.6-890-2328.4-1746.5-3491.2-2789l-.6-.5-.8-.6c-165-134.2-352-216.5-550.3-265.1-198.2-48.6-407.7-63.7-619.6-63.8-183 0-367.7 11.4-548.5 22.6h-.4c-489.1 35.3-989 165.3-1486.7 285.8-497.6 120.5-993 231.5-1471 231.4-287.8 0-569.2-40-842.4-141.8-273-101.8-538.1-265.4-793.4-514.3l-3.7-3.6-4.6-2.5c-31.1-16.4-64.7-20.7-98-20.7-66.4.3-136 16.8-201.2 16.5h-2.7l-2.7.5c-115.7 17.4-219.5 62-315.6 117.7-144 83.6-272 192.4-399.6 278.5-63.8 43.1-127.3 80.6-192.2 107-64.9 26.5-130.8 42-200.8 42-46.4 0-94.6-6.8-145.9-22.3l-1.5-.4-1.4-.3c-52.8-11.6-82-35.1-102-67.7-20-32.7-29-77-28.9-126.2 0-43.9 7-91 17.5-135l.4-1.5.2-1.3c47.3-304.2 70.2-609 70.2-911.8-.1-1436-513.5-2828.2-1360.1-3903.4C1760 9034 936.2 8405.4 0 8072.5v77.2z"></path><path class="fil0" d="M14465.3 20351.8l-35.1 3.3c27 280.8 39.4 559.9 39.4 837.6.4 2405.4-938.9 4711.8-1540.8 7054.3l-.2.3c-132.5 544.4-173.3 1082-173.3 1617.2 0 755.6 81.2 1507 101.8 2268.7v.7c1 21.5 1.5 42.7 1.5 64.2 0 357.7-135.5 687.5-355 927-219.5 240-522 389.9-857.7 389.9-19 0-38-.7-57-1.4h.2c-997.2-56.5-2007.2-247-3007.2-247.3-974.6 0-1941.5 182.4-2871.4 850.2h.1c-1500 1062.5-2892.8 2124.4-4359 3013-442.3 268-891.1 520.2-1351.6 752v79c473.5-237.2 934.5-495.7 1388-770.6 1470.7-891.1 2864.7-1954 4363.4-3016l.2-.2c915.9-657 1864-836.5 2830.3-836.8 991 0 1999.8 190 3003.2 246.9h.2c20.3 1 40.5 1.7 60.6 1.7 357.1 0 678.6-159.8 909.8-412.7 231.3-252.6 373.4-599 373.4-974.7 0-22.6-.5-44.8-1.5-67.4l-35.2 1.8 35.3-1c-20.9-765.6-101.9-1516.3-101.8-2267 0-531.7 40.5-1063.3 171.3-1600.6l-34.3-8 34.2 8.7c599.7-2336 1542.7-4647.8 1543-7071.9 0-279.9-12.5-561.2-39.7-844.3l-.2-2.4-.6-2.4-34.3 8.2zM0 12316.2c51-2.7 102-4.1 153-4.1 340.9 0 678.8 62.4 965.5 206 286.9 143.6 522.8 367 664.3 692.7v-.2c243.6 571 330.1 1155.8 330.2 1749 0 681.5-114.6 1373.5-235.8 2064.8-121.2 691.2-249 1381.6-273.7 2060.5v1.3c0 65-.5 134.3-.5 206.3 0 252 6.5 535.8 68.6 784.6 31 124.4 76.2 240.2 142.5 338.6 66.3 98.4 154.3 179.2 268.8 230.9l1.3.6 1.5.5a591.5 591.5 0 00198.2 33.7c191-.2 374.5-87 547.7-199 173.2-112.3 337-251.2 486.2-361.4l.8-.6.7-.6c822.2-680.6 1743.5-1533.3 2714.2-2215 970.8-682 1990-1191.1 3004.8-1190.8 586.6.2 1172.5 169 1752.4 574.7l.5.3.6.3c454.9 295.7 850.7 676.5 1261.7 1031.5 411 354.9 837.7 684.2 1356 873l12-33-13 32.8c277.4 109.8 554 293 746.5 554.5l.5.6c124.2 161 216.6 363 275.5 611.2l34.3-8.1-35.1 3.3 35.1-3.3 34.3-8.2c-60.6-255.8-156.9-467.6-288.2-638l-28 21.6 28.5-21c-202.5-274.9-490.3-464.5-777.4-578.2l-.5-.3-.4-.1c-504.8-184-924.8-506.8-1334-860.2-409.1-353.2-807-736.6-1269.4-1037.3l-19.2 29.6 20.2-28.9c-590.6-413.3-1192.7-587.5-1793-587.4-1038.9.4-2069.2 518.5-3045.3 1203.7-976 685.5-1898.5 1539.6-2718.5 2218.3l22.4 27.2-21-28.3c-151.7 112.2-314.5 250-482.5 359-168.2 109-340.7 188-509.4 187.6-58.3 0-116.4-9.2-174.8-29.8l-11.7 33.3 14.5-32.1c-101.6-46.1-179-116.7-239.3-206-90.5-134-141-310.6-168.1-501.3-27.1-190.6-31-394.6-31-582.5 0-71.7.5-140.9.5-206.3h-35.2l35.2 1.3c24.4-671.8 151.4-1359.3 272.7-2051 121.2-691.6 236.8-1387.5 236.8-2077 0-599.8-87.7-1195-335.9-1776.6v-.1c-148.2-341.8-398.2-578.4-697.5-728-299.4-149.6-647.7-213.2-997-213.2-51 0-102.1 1.3-153.1 4v70.6z"></path><path class="fil1" d="M13723 22383.6l-34.8 10c118.2 411.1 168.4 826 168.4 1243.7 0 502.7-73 1009.3-188.2 1516.6-432.5 1858.4-842.5 3620.5-842.5 5488.8 0 417.3 20.4 839.6 65.7 1269.6v.7a1474 1474 0 0110.5 173.6c0 220.1-53.9 402.6-146.3 553.9-138.7 226.8-366.1 384.8-635.3 486.8-269 101.6-578.7 146-876.5 146a2945 2945 0 01-358-21.5l-4.5 36 5.3-36c-760.9-112.5-1529.8-218.3-2290-218.3-1002.4 0-1990.7 184.5-2920.7 782.8l-.6.3c-1394.5 932.8-2699.3 1911-4068.6 2729.5-523.4 313-1056.1 602.6-1606.9 857.7v80c564.4-259.8 1109.5-555.6 1644.2-875.3 1373.6-821.6 2679.3-1800.2 4071.7-2731.5l-20.2-30 19.6 30.3c915.9-588.8 1887.6-771.2 2881.5-771.5 753.4 0 1519 105.5 2279.4 218h1a3015.3 3015.3 0 00366.8 21.9c406.5 0 835.7-79.8 1167.1-277.3 165.7-98.8 306.9-227.2 406.5-390.2 99.7-163 157.2-359.5 157.1-591.6 0-58.6-3.6-119.2-11-182.4l-36 4.6 36-3.9c-45-427.5-65.3-847.3-65.3-1262.2 0-1857.7 408-3613.8 840.7-5472.6 116-511.2 190-1023.1 190.1-1532.8 0-423.4-51-845.3-171.3-1263.7l-.2-.6-.3-1.1-34.3 11.7zM0 19655.4a1945.8 1945.8 0 0158.2 256.9c61.6 377 52.3 845.2 61.8 1320.5 9.7 475.4 38.1 958.5 179.2 1369l.2.5.2.6c70.8 186.6 150.6 394 269.1 558.1 59.3 81.9 128.7 153.1 212.2 204.3a552.2 552.2 0 00293.5 81.1v-36.3l-3 36a4057 4057 0 00327.1 13c1312.8-.3 2600.7-613.4 3615.7-1512.9l-24-27.1 23.6 27.5c512-438.7 1079.8-1073.3 1677.8-1597 298.8-261.9 605-495.8 914-663.8 309-168 620.4-269.6 930.6-269.6 349.4.3 699.5 127.8 1051.2 442.5l-.3-.2c1028.4 936.8 2164 1424 3437.1 1760.2l9.3-35.1-12 34.2c45.8 16 96.6 51 148.1 90.8 51.7 39.8 104.1 84.1 158.4 117.6l19-31-24.1 27.2c158 140.4 281 325.8 365.9 573l34.3-11.8-34.9 10 34.9-10 34.3-11.8c-88-256.9-218.2-454.6-386.4-603.7l-2.3-2-2.8-1.7c-47.5-29.2-98.9-72-152-113.2-53.3-41-108.4-80.5-168.4-101.8l-1.2-.5-1.6-.4c-1267-334.8-2389-816.7-3406.7-1743.6l-.2-.3c-361.8-324.4-731.9-461.2-1099.6-461-326.3.1-649.2 106.8-965.3 278.5-474 257.8-934.3 662.5-1372 1084-437.6 421.5-852.6 860.2-1232.3 1185.4l-.5.4c-1004.7 890.6-2277.8 1494.9-3567.6 1494.5-107 0-214.2-4.2-321.3-12.7h-2.8a478.6 478.6 0 01-255.7-70.2c-109.4-66.6-196.4-177.4-268.7-308-72.3-130.1-129.7-278.7-182.6-418.3l-33.9 12.8 34.3-11.8c-104-302.2-146-651-164-1009.3-27.2-537.6-1-1096-57.9-1555.5-26.2-210.6-69.8-400.8-145.9-559.3v201.3z"></path><path class="fil1" d="M17278.6 14908l-33.6-1.3c-187 4651.4-2653.6 8748.9-4172.7 13077.1v-.3c-218.5 611-278.8 1226.6-278.8 1842.9.1 766.6 93 1535.6 93 2303.3 0 322.4-16.4 644.8-62.7 967v.3c-34.2 251.9-161.2 448.3-335.6 583.5-174.5 135-396.8 207.4-618.9 207.4v33.5l1.4-33.5c-1057.7-42.7-2156.5-336.2-3234.6-336.6-782.7-.3-1556 156-2289.6 678.4l.2-.3C4264.2 35683.9 2298 37258.4 237 38477c-78.8 46.7-157.9 92.8-237 138.3v78c90.6-52 181-104.7 271.3-158 2066.5-1222.7 4033.7-2798 6114-4251h.2c720.5-512.6 1476.4-665.7 2250.6-666 1066-.4 2164 293.2 3231.8 336.5l1 .4h.4c236.6-.4 472.8-77 660-221.6 187.1-144.3 324.8-358 361.1-628v.4c47-326 63.3-651.5 63.3-976.4 0-773.4-93-1542-92.9-2303.3 0-612.1 59.9-1218.8 275-1820.4 1514.7-4319.7 3987.1-8422.6 4176.4-13096.6l.2-3.7-.7-3.6-33 5.9zM0 90.6c624.4 568.2 1224.7 1274.8 1857.8 1870 365 343 741 649 1140.4 869.9 399.2 220.8 822.2 356.3 1278.5 356.3 546 0 1137.5-194 1791.3-660.4l.2-.2c253.7-184 510-261.6 766-261.8 430.5-.2 863.5 222.2 1263.4 544 399.8 321.5 765.8 740.9 1064 1127.6l-.2-.2c541.3 711 696.8 1519 696.9 2367 .3 1136.6-281.1 2341.4-281.5 3462.9 0 38.2.4 76.3 1.1 114.3v1.5c18 282.9 80 594.4 215.7 847.8 67.8 126.6 154.3 238.8 263.5 324.5a790.6 790.6 0 00397 163.6h.4c231 25.7 467.5 32.6 705.8 32.6 287.9 0 578.4-10.2 864.6-10.2 431.5 0 853 23.3 1241.3 137.7 388.3 114.7 743.5 319.3 1046.6 685.2h.1c391 469.5 843.3 825.3 1301.7 1161 458.7 335.9 923.5 651.7 1341.6 1040.3l23-24.7-26.1 21.4c145 177 245 389.4 292.5 653.2l33-5.9-33.6-1.3 33.6 1.3 33.1-6c-49-273.9-154.2-498.2-306.6-684l-1.3-1.6-1.8-1.7c-423-393-890.4-710.3-1347.6-1045.2-457.3-334.8-904.6-687.2-1289.8-1149.7-311.7-376.6-680.9-589.5-1079.4-706.7-398.6-117.5-826.5-140.4-1260.3-140.5-287.8 0-578.3 10.2-864.6 10.2-237 0-471-7-698.4-32.3l-3.7 33.5 4.2-33.4c-144-18-263.4-71.2-363.8-149.7-150.3-117.8-257.6-294.3-330.2-494.2-72.6-199.8-110.3-422.3-123.3-629.5l-33.5 2.2 33.6-.7c-.8-37.6-1-75.3-1-113-.4-1110.6 281-2315.6 281.4-3462.8 0-855.8-157.7-1681.6-710.6-2407.8l-.2-.2c-300.1-389.2-668.7-812-1075-1139-406.3-326.5-851.3-558.4-1305.5-558.7-269.9-.1-541.9 82.9-805.5 274.6l.2-.2c-645.8 460.4-1222.7 647.8-1752.3 647.9-442.8 0-854-131.2-1246-347.9-588-325-1131.4-843.2-1665-1394C911.1 908.5 463.8 416.2 0 0v90.6z"></path><path class="fil2" d="M48031.6 45835.4l-45-47a16485.6 16485.6 0 01-812.6-926.7l-27.2 22.2 28.2-21.5c-1026.5-1350-2300-2359-3712.9-3291.7-601.5-392.7-1210.7-709.8-1791.4-1058.7-581-348.5-1133.4-728.9-1624.2-1247l-25.7 24 26.8-23c-144.6-168.3-208.9-368-208.9-571.5-.3-273.4 117.2-553.2 313.7-760.3l.3-.3c561.3-612.1 1248.5-1124.3 1854.2-1699.3s1130.3-1214.7 1360-2081.8l.6-2.4.4-2.5c53-452.6 73.4-904.2 107.6-1349.4 547.5-7124.7 5388.4-12965.5 11782.2-14632 399.8-104.1 805.7-192 1216.6-262.6l-6-34.8 3.7 35.1c76.2-7.9 151-11.7 223-11.7 429.4.2 780.8 135.6 1082.3 361.4 451 338.7 786.7 883.8 1078 1476.6 291.4 592.6 538.4 1231.8 819.6 1757.9 118.2 221.8 279.3 423.6 469 570.8 190.3 147.2 410 240 643.3 240 171.3.1 349.5-50.5 525.4-164.1l-19.4-29.7 19 30.1c723-441.8 1376.8-1095 2061-1635.9 342.1-270.5 691.7-512.8 1059.6-687.2 369-174.3 755.4-280.8 1175-280.9 175.5 0 357.5 18.8 545.8 59.4l7.4-34.5-13 33c367.2 142.2 717.1 341.5 1057 564.5a15539.4 15539.4 0 01528.2 363v-86.8a15584.2 15584.2 0 00-489.5-335.2c-342.6-224.6-696.7-426.6-1069.7-571.3l-2.8-1.1-2.8-.6c-193-41.6-380-61-560.5-61-431.7 0-829.7 110-1205 287.8-563.4 266.8-1076.8 685.6-1584.7 1118.9-507.4 433.3-1008.3 881.2-1543.5 1207.7l-.4.5c-165.8 107-329.7 152.8-487.1 152.9-214.3 0-418.8-85.3-599.8-225.2-180.5-139.9-336.1-334.2-450.2-548.3-370.7-694-686.5-1598.5-1130.2-2332.2-222.1-367-476.5-691.6-787.7-925.4-311.2-234-680.1-375.9-1124.3-375.7-74.8 0-151.4 4-230.4 12.1l-1 .1-1.3.3a14783 14783 0 00-1222.6 263.9C48815 19773 43954.9 25639.6 43405.3 32792.9c-34.2 447-54.6 897.4-107.6 1346.9l35.3 4.2-34.2-9.2c-224.8 848.8-738.7 1477.1-1340.2 2048.6s-1290.1 1084.4-1857.7 1702.5l25.7 24-25.4-24.4c-208.1 220.2-333 515.1-333 809-.3 218 69.5 436 226.1 617.7l.4.3.7.8c497 525.2 1055.8 909 1639 1259.4 583.5 350.3 1191.3 666.7 1789.2 1056.9h-.3c1409.7 930.6 2676.2 1934.6 3695.3 3275.5l.5.4.5.7a16454 16454 0 00814.6 929.2h97.4z"></path><path class="fil1" d="M50455.4 45835.4c-229.9-249-451.5-506.8-664-773-249.2-311.8-486.1-635.3-728.5-967.6-372.1-506.6-797.4-918.3-1256.8-1329l-.4-.3-.5-.7c-797-654.7-1636.6-1140.2-2460.7-1633.7-824.4-493.9-1633.3-995.5-2371-1682.4l-.3-.3h-.4c-213-188.1-314.3-443.5-314.7-702.4 0-236 85-474.5 247.7-663.3l-27.5-23.6 26 25c719.7-741.8 1627.4-1356.7 2392.2-2082.4 382.1-363 728.5-754.2 996.6-1203.3 268.2-449.4 457.5-957 525.9-1551.2l-36-4.2 36 6a14890.8 14890.8 0 01266-1234c1052.6-4045 3741.2-7374.1 7265.9-9143.6 352.3-176.8 712.4-338 1073.5-455.9l.9-.3c236.4-85 476-128.9 711.5-128.9 515.7.3 1008 209.6 1389.3 662.3l.4.8c183.3 208.1 351 485.4 515.3 784.2 248 448.4 489 945 772.5 1332.4 141.7 193.3 295 360.2 465.8 479.1 171.3 118.9 361.5 189.8 574.4 189.8 264 0 559.1-108.3 895.7-357.4l-21.2-29.3 20.8 29.7c681.9-485.5 1341.2-1169.9 2032-1731.4 344.8-280.9 697.6-530.6 1063.7-709.8 366.2-179.3 745.2-288.2 1144.6-288.2 315.4 0 644.1 67.7 990.4 223.6l14.8-33.2-16.2 32.5a13389.6 13389.6 0 011754 1057.4v-89a13554.5 13554.5 0 00-684.2-453.4c-337-208-682.9-401.8-1037.5-580l-.9-.3h-.5c-354.6-159.9-694-230.2-1019.9-230.1-412.8 0-802.9 112.6-1176.4 295.4-560 274.4-1083.2 707-1593.4 1160-510.2 453.3-1007 927.7-1512.6 1287.6l-.4.3c-328.8 243-609 343.3-852.8 342.9-261.3 0-485.7-114.7-690.3-304.5-307-284.3-563.3-737.6-811.2-1199.7-248.4-462.5-488-933.5-771.5-1256.6l-27.7 24 27.7-23.3c-393.9-468.6-909.1-688.6-1444.7-688.3-244.3 0-492.7 45.5-736 133.1l12.5 34.1-11.6-34.4c-365.6 119.6-729 282.1-1083.6 459.9-3543.6 1779.4-6245.1 5125.5-7303.4 9190.1a14975.4 14975.4 0 00-267.3 1240.4l-.5 1.1v.7c-66.9 583.8-252.5 1080.5-515.7 1522.2-395.3 662.5-966.8 1200.1-1576.4 1712.4-609.6 512.2-1257.2 998.4-1802.3 1560.3l-.7.7-1 .8a1095.1 1095.1 0 00-265 710.8c-.4 277.6 109.7 554.6 339 756.7l24-27.2-24.7 26.5c744.4 692.5 1558.2 1197 2383 1691.2 825.2 493.9 1661 977.5 2452 1627.7l22.5-28.2-24 27.2c458 409.5 879.6 817.7 1246.7 1318 242.8 331.9 480.1 656.4 730.4 969.7a14250 14250 0 00622 727.8h98.7z"></path><path class="fil2" d="M53455.6 45835.4a11850.9 11850.9 0 01-1144.6-1509.9c-202.2-316-394.7-644.2-624.2-972.3-495.4-705.5-1141.8-1226.2-1844.5-1677.8-702.8-451.2-1461.8-833.2-2183.5-1261.1l-18 30.3 19-30c-279-176.4-664.5-404-979.3-670.2-157.5-133-297-276-395.7-425.1-99.3-149.6-158.2-304.9-158.2-465.4 0-172.8 67.2-354.9 235.7-548.2v.4c914.2-1040.7 2015.9-1906.8 3011.8-2866.4 996-959.5 1887-2013.6 2374.6-3430.4l-33.3-11.6 31 16.2c174-337.6 362.4-664.6 564.6-980.7 201.8-316 418.4-621.6 647.4-913.7l-28.2-21.9 27.7 22.3c336.1-418 697.2-867.5 1108.1-1215.7 411.9-348.5 871.7-594.8 1407.8-613.1 15.2-.7 30-1 44.8-1 223 0 414.6 66 589.6 174.6 262.2 162.6 484.3 424 703.1 701.3 218.4 277.2 432.7 569.7 683.8 793.4l.5.3.5.8c227.6 188.3 465 266.6 700 266.6 311.1-.3 616.8-134.7 904.9-318.2 288.5-183.4 560.5-417 803.8-619.8 709.2-595.9 1386-1351.9 2114.2-1956.8 363.4-302.4 740.1-567.3 1138.6-756 398.4-189.2 819-302 1273-302.4 179 0 363.7 17.7 554 55.4l6.9-34.6-10.6 33.6a10743.3 10743.3 0 011033.3 399c601.6 268.9 1176.2 592 1719 962.7v-85.3a11093.1 11093.1 0 00-1690.4-941.7 10723.4 10723.4 0 00-1040.2-401.8l-1.9-.7-2.3-.3a2931 2931 0 00-567.9-56.8c-465.8 0-897 116.4-1303.4 309-608.5 288.6-1161.2 747.9-1694 1245.7-532.8 497.4-1045.8 1033.6-1573.5 1477-243.4 203.2-514 434.7-796.5 614.2-282.6 179.9-577.1 307.3-867 307.3-219.9-.4-437.8-71.7-655.2-250.9l-22.2 27.6 23.5-26.5c-324.5-288.6-594.6-707-899.4-1056.2-152.3-174.2-314-331.6-497.2-446-183.3-114.2-389.7-185.1-627-185.1-15.7 0-31.4.4-47.6 1h.5c-557.3 19.1-1032.9 275.6-1450.7 630.1-418.4 354.2-781.7 807.2-1117.8 1224.8l-.5.4a11791.5 11791.5 0 00-651 919.3 12160.5 12160.5 0 00-567.5 986.7l-1.3 2.2-1 2.4c-482 1401.3-1363.9 2446.2-2356.5 3402.5-992.7 956.4-2095.8 1823.6-3016.4 2870.3v.3c-176.2 202.1-253 402.1-252.7 594.5 0 178 65.2 347 169.6 504.4 157 236 402.1 448 659.8 635.4 258 187 528.6 348.8 736.4 480.4l.5.4.4.3c724.4 429.4 1482.6 811.4 2181.1 1260.2 698.6 448.3 1337.2 963.4 1825.2 1658.4 227.2 325.6 418.8 652.3 622.4 970a11920 11920 0 001109.8 1471.9h94.3z"></path><path class="fil1" d="M57147.5 45835.4a9121.4 9121.4 0 01-1496-2494.9c-144-360.1-268.2-732.7-389.7-1106.3l-.9-1.7.5.7c-232.3-665.4-643.2-1176.2-1117.4-1631.6-474.1-455.5-1012.5-856.5-1504.7-1302.1l-.4-.7-.5-.4c-237.3-195.4-335.2-434.6-335.2-674.1 0-190.9 62.8-382.5 170.8-548.6 108.5-165.8 261.4-305.8 439.6-394.4l.4-.4c3426-1791.4 6179.1-4029.4 9389-6414.1l.4-.8 1.4-.7c344.9-291.4 759-401.8 1211-437 124.7-11 247-15.9 368.5-15.9 272.9 0 538.4 25 801 62.8 1095.6 156.9 2125 533.6 3047.9 1086.4v-84.2c-921.3-545.4-1946.8-917.8-3037.6-1074.2-265-38-534.2-63.2-811.3-63.2-123.3 0-248 5-374.4 16l3.2 36.3-3.2-36.4c-459 35.7-891.6 149.3-1252.2 454l23 28-21.1-29.4c-3211.2 2386.2-5961.2 4621.4-9379.3 6408.2l16.7 32.1-15.7-32.4c-190.7 94.9-352.8 243.4-467.8 419.8s-182.8 381-182.8 588c-.5 259.7 108.5 522.9 361 730l23.2-28-24.5 26.9c495.9 448.7 1033.8 849.5 1503.3 1300.7 470 451.5 871.7 952.5 1099.4 1603.4l34.1-12-34.6 11.3c121.9 374.3 246 748.2 391.5 1110.9a9197.4 9197.4 0 001468.9 2468h94.5zM44170.4 45835.4c-189.4-208-374.7-420.1-555.2-636.8-259.3-311.5-510.5-632.2-764.4-962.7h.3c-823.4-1090.4-1854.2-1859.5-2955.9-2542.1-1101.7-682.3-2274.3-1278.5-3383.5-2022.9-205.3-136.8-380-312.9-503-509.7-123.2-196.5-194.4-413.5-194.4-632.5.3-264.6 103-534.1 349.9-781.4l.4-.4c580-594.4 1251-1144.7 1802.7-1778.3 551.4-633.3 983.8-1352.3 1082-2281.4v-4c-6.4-441.6-20.9-886-20.9-1334.1 0-10297.8 7571.7-18725.2 17150-19409.2l-2.4-33.6 1.9 33.6a7813 7813 0 01458.5-15c262.2 0 524 17.6 784 68.4l.9.2c458.5 76.8 849.5 258.5 1199 509.4 523.6 376.3 951.2 909.3 1360.7 1475.3 409 565.9 800.2 1164.4 1251.7 1670.3l1 .7c225.7 239 512 331.1 799.6 330.9 222.1 0 445.6-54 648.3-136.5l.4-.2 1-.4c534.6-244.4 1060-604.6 1595.6-902.6 535.6-298.3 1080-533.5 1650.6-533.3 261.8 0 529.2 49.2 805.7 165l12.5-31-16.2 29.3c340.3 191.6 673.7 413.5 1000.1 646.5l1.9 1.3v-82.6c-316-224.2-638.7-437.9-969.2-623.8l-1.4-1-2.3-.8c-284-119.1-561-170.2-831-170.2-589.2.2-1144.2 241.9-1683.5 541.8-538.8 300.2-1063.3 659.5-1590.6 900.3l13.9 30.5-12.5-31c-196.2 79.7-412.3 131.5-623.3 131.4-274.2-.2-538.8-85.9-750.7-309.9l-24.5 23.2 25-22.4c-596.6-667.4-1090.6-1505.7-1668.2-2218.3-289-356.3-599.8-681.2-955.3-937.1-356-255.9-757.7-442.6-1227.2-521.2l-5.1 33.2 6-33c-265.5-51.9-531.4-69.7-797-69.8-154.1 0-308.8 6.2-462.1 15.2h-.5C46557.2 13560 38961 22018.3 38961.4 32349.1c0 449.4 14.1 894.3 20.8 1335.2l33.5-.7-33.5-3.5c-96.3 911.5-519.3 1616-1065.8 2244.4-546.4 627.9-1216.3 1177.2-1800.2 1775.5l24 23.6-23.6-24c-258 258-369.7 546.5-369.7 829 0 234 76.2 463 204.6 668.6 128.8 205.3 310.4 387.7 522.8 529.8 1113.7 746.9 2287 1343.4 3385.3 2024 1098.5 680.4 2121.9 1444.5 2937.5 2525.5l.4.3c254.3 331 505.9 652.3 766.2 964.9 168 201.7 340 399.5 515.7 593.7h91z"></path></g></svg>